<?xml version="1.0" encoding="utf-8"?>
<!-- Generator: Adobe Illustrator 19.2.1, SVG Export Plug-In . SVG Version: 6.00 Build 0)  -->
<svg version="1.1" id="Layer_1" xmlns="http://www.w3.org/2000/svg" xmlns:xlink="http://www.w3.org/1999/xlink" x="0px" y="0px"
	 viewBox="0 0 401.2 343.9" style="enable-background:new 0 0 401.2 343.9;" xml:space="preserve">
<g>
	<path d="M78.7,123.4c0,1.7,0.1,3.5,0,5.2c-1,9.5,4.4,10.4,12.8,8.7c1.6-0.3,3.4-3.7,3.7-5.9c0.5-5,0.1-10,0.2-15
		c0.1-5.8,2-7.1,7.4-5c10.1,3.9,15.6,11.7,17.4,22c1.9,10.7-1.3,20.2-10.3,26.5c-4.5,3.1-5.5,6.5-5.4,11.4c0.2,26.6,0.2,53.2,0,79.8
		c0,5,1,8.3,5.5,11.3c8.8,6.1,12.1,15.3,10.4,25.8c-1.6,10.1-6.8,17.9-16.4,22.1c-6.3,2.8-8.4,1.4-8.5-5.4c-0.1-4.8,0-9.6,0-14.4
		c0-5.3-3.3-6.5-7.8-6.5c-4.5,0-8.6,0.4-8.8,6.2c-0.2,5,0,10-0.1,15c-0.1,6.4-2.1,7.6-8.2,5.2c-19.4-7.8-23.3-35.2-6.5-47.9
		c4.5-3.4,5.7-6.8,5.6-12c-0.2-26.6-0.2-53.2,0-79.8c0-4.7-1-7.9-5.2-10.9c-16.8-12.1-13.8-39,5-47.8c7.3-3.4,9.3-2.1,9.3,6
		C78.7,119.9,78.7,121.7,78.7,123.4z M103.3,120.5c-1.2,10.3,2.8,22.8-12.4,24.7c-4.5,0.6-9.9,0.1-13.8-2c-9-4.8-4.4-14.9-6.5-22.6
		c-12.6,9.4-12.9,25.5-0.8,33.9c5.5,3.8,7.4,8.4,7.4,14.9c-0.2,27.5-0.3,55,0,82.5c0.1,7.2-2,12.2-8.1,16.4
		c-11.6,8-10.6,25.6,2.1,33.3c-0.1-12.3-1.6-25.7,16.8-25.1c17.2,0.6,14.8,13.6,15.1,24.9c12.9-7.8,13.5-25.2,1.4-33.6
		c-5.7-4-7.8-8.6-7.7-15.4c0.2-27.7,0.2-55.4,0-83.1c0-6.5,2-11,7.5-14.8C116.4,146.2,116.1,130,103.3,120.5z"/>
	<path d="M226.6,160.1c-2.4,3.4-3.5,5.6-5.2,7.3c-26.6,26.7-53.3,53.4-80,80.1c-5.6,5.6-6.4,5.6-12.1,0c-3.1-3.1-6-6.4-9.3-9.2
		c-4.2-3.6-3.9-6.8,0.2-10.1c0.2-0.1,0.3-0.3,0.5-0.5c33.5-33.5,67-66.9,100.3-100.5c4.1-4.2,6.8-4.5,11.1-0.2
		c33.5,33.8,67.1,67.4,100.9,100.9c4.1,4,4.2,7.1-0.1,10.7c-3,2.5-5.6,5.5-8.4,8.3c-6.5,6.4-6.6,6.5-12.9,0.2
		c-26.5-26.5-53.1-53.1-79.6-79.6C230.4,165.8,229.2,163.7,226.6,160.1z M326.5,234.1c-33.7-33.7-67.1-67-99.6-99.5
		c-32.9,32.9-66.3,66.3-99.3,99.3c2.2,2.4,4.9,5.4,8.8,9.6c1.7-2.3,2.9-4.5,4.5-6.2c26.5-26.6,53-53.1,79.6-79.6
		c6.2-6.2,6.3-6.2,12.4-0.1c26.7,26.7,53.4,53.4,80,80c1.6,1.6,3.4,3.2,5.3,5.1C321.3,239.5,324,236.6,326.5,234.1z"/>
	<path d="M247.6,67.9c-9.8,9.9-19.5,19.6-29.2,29.3c-9,8.9-15.5,8.9-24.6-0.1c-3.4-3.4-6.9-6.7-10.1-10.3
		c-5.1-5.8-5.2-13.4,0.2-18.9c15.7-16,31.6-31.9,47.7-47.6c1.5-1.5,5.3-1.9,7.4-1.1c11.2,4.2,22.2,8.9,33.2,13.7
		c5.3,2.3,5.7,4.6,1.6,8.7c-6.8,6.8-13.7,13.4-21,20.5c2.1,2.2,3.6,3.9,5.3,5.6c27.3,27.3,54.4,54.8,82,81.8
		c11.4,11.1,6.7,23.3-5.8,30.2c-5.9,3.2-12,2-16.9-2.8c-26.3-26.1-52.5-52.3-78.6-78.7c-1.3-1.4-1-4.4-1.4-6.7c2.4,0.6,5.5,0.5,7,2
		c25.3,25,50.4,50.2,75.5,75.3c6.7,6.7,10.6,6.5,16.7-0.7c3.4-4,3.4-7.9-0.3-11.6C306.9,127.1,277.4,97.7,247.6,67.9z M267.6,39.2
		c-11-4.6-19.7-8.4-28.6-11.8c-1.5-0.6-4.5,0.6-5.8,2c-14.2,13.9-28.1,28-42.2,41.9c-4.3,4.2-4.8,8-0.2,12.2c3,2.8,5.8,5.9,8.8,8.8
		c5.3,5.2,7.8,5.2,13.1-0.1c13.1-13,26.1-26.2,39.3-39.2C256.7,48.4,261.8,44.3,267.6,39.2z"/>
	<path d="M252.4,317.2c9,0,17.2,0.6,25.4-0.2c8.9-0.9,14.2-7.6,14.3-17.4c0.2-15.3,0.1-30.5,0.1-45.8c0-1.7-0.4-3.7,0.3-5.2
		c0.7-1.5,2.4-2.5,3.7-3.8c1.2,1.3,3.3,2.7,3.3,4c0.1,18.7,0.6,37.5-0.4,56.2c-0.6,10.6-10.6,18.9-21.4,19.6
		c-8.7,0.5-17.4,0.1-26.2,0.4c-5.1,0.2-7-1.9-6.9-7c0.2-16.1,0.2-32.3,0-48.4c-0.1-9.1-6.4-16-14.8-17.3c-8.8-1.3-17,3.1-19.8,11.4
		c-1.2,3.4-1.4,7.3-1.4,10.9c-0.2,14.2-0.3,28.4,0,42.5c0.1,6.1-2.1,8.1-8,7.8c-7.8-0.4-15.7,0.1-23.5-0.3
		c-12.3-0.6-22.2-8.9-22.9-21c-1-18-0.6-36.2-0.4-54.3c0-1.6,2.6-3.2,4.1-4.7c1.1,1.9,3.1,3.7,3.1,5.6c0.3,15,0.2,30.1,0.2,45.1
		c0,15.9,6.2,22,22.3,22c5.6,0,11.2,0,17.8,0c0-3.4,0-6.2,0-8.9c0-12.2-0.1-24.4,0-36.6c0.2-16.3,11-27.7,25.9-27.5
		c14.7,0.2,25.3,11.5,25.3,27.5c0.1,12.9,0,25.7,0,38.6C252.4,312.7,252.4,314.8,252.4,317.2z"/>
</g>
</svg>
