<svg id="Layer_1" data-name="Layer 1" xmlns="http://www.w3.org/2000/svg" viewBox="0 0 160.37 58.14"><defs><style>.cls-1{fill:none;stroke:#231f20;stroke-miterlimit:10;}.cls-2{font-size:24px;fill:#231f20;font-family:Minion Pro;}</style></defs><title>Jan Logo</title><polyline class="cls-1" points="63 55.75 63 0.5 77 0.5 77 55.75"/><polyline class="cls-1" points="88.38 55.75 88.38 32.63 80.38 23.5 80.38 55.75"/><path class="cls-1" d="M123.44,174.76" transform="translate(-63.81 -112.74)"/><path class="cls-1" d="M115.44,174.76" transform="translate(-63.81 -112.74)"/><polyline class="cls-1" points="59.13 55.75 59.13 9.88 51.13 19 51.13 55.75"/><text class="cls-2" transform="translate(4.12 49.5)">J<tspan x="7.06" y="0">AN</tspan></text><text class="cls-2" transform="translate(92.62 49.5)">RE<tspan x="28.54" y="0">N</tspan><tspan x="46.2" y="0">O</tspan></text><line class="cls-1" x1="51.12" y1="55.75" y2="55.75"/><line class="cls-1" x1="87.87" y1="55.75" x2="160.37" y2="55.75"/><line class="cls-1" x1="51.12" y1="55.75" x2="51.62" y2="55.75"/><line class="cls-1" x1="58.62" y1="55.75" x2="63.5" y2="55.75"/><line class="cls-1" x1="76.5" y1="55.75" x2="80.88" y2="55.75"/></svg>