<?xml version="1.0" encoding="utf-8"?>
<!-- Generator: Adobe Illustrator 19.2.1, SVG Export Plug-In . SVG Version: 6.00 Build 0)  -->
<svg version="1.1" id="Layer_1" xmlns="http://www.w3.org/2000/svg" xmlns:xlink="http://www.w3.org/1999/xlink" x="0px" y="0px"
	 viewBox="0 0 32 32" style="enable-background:new 0 0 32 32;" xml:space="preserve">
<g id="team_x2C__crew_x2C__group_1_">
	<g>
		<g>
			<g>
				<g>
					<path d="M10.4,11.1c-1.2,0-2.1-0.9-2.1-2.1s0.9-2.1,2.1-2.1s2.1,0.9,2.1,2.1S11.6,11.1,10.4,11.1z M10.4,7.6C9.6,7.6,9,8.2,9,9
						c0,0.8,0.6,1.4,1.4,1.4c0.8,0,1.4-0.6,1.4-1.4C11.8,8.2,11.2,7.6,10.4,7.6z"/>
				</g>
			</g>
		</g>
		<g>
			<g>
				<g>
					<path d="M8.6,26.5c-0.2,0-0.4-0.2-0.4-0.4v-3.5c0-0.2,0.2-0.4,0.4-0.4c0.2,0,0.4,0.2,0.4,0.4v3.5C9,26.4,8.8,26.5,8.6,26.5z"/>
				</g>
			</g>
		</g>
		<g>
			<g>
				<g>
					<path d="M7.2,19.5c-0.2,0-0.4-0.2-0.4-0.4v-4.9c0-1.1,0.9-2.5,2.1-2.5h3.2c0.2,0,0.4,0.2,0.4,0.4c0,0.2-0.2,0.4-0.4,0.4H9
						c-0.8,0-1.4,1-1.4,1.8v4.9C7.6,19.3,7.4,19.5,7.2,19.5z"/>
				</g>
			</g>
		</g>
		<g>
			<g>
				<g>
					<g>
						<path d="M8.3,21.6H6.2c-0.4,0-0.7-0.3-0.7-0.7v-1.4c0-0.4,0.3-0.7,0.7-0.7h2.1c0.4,0,0.7,0.3,0.7,0.7v1.4
							C9,21.3,8.7,21.6,8.3,21.6z M8.3,20.9v0.4V20.9L8.3,20.9L8.3,20.9z M6.2,19.5v1.4h2.1l0-1.4H6.2z"/>
					</g>
				</g>
			</g>
		</g>
	</g>
	<g>
		<g>
			<g>
				<g>
					<path d="M23,11.1c-1.2,0-2.1-0.9-2.1-2.1s0.9-2.1,2.1-2.1s2.1,0.9,2.1,2.1S24.2,11.1,23,11.1z M23,7.6c-0.8,0-1.4,0.6-1.4,1.4
						c0,0.8,0.6,1.4,1.4,1.4c0.8,0,1.4-0.6,1.4-1.4C24.4,8.2,23.8,7.6,23,7.6z"/>
				</g>
			</g>
		</g>
		<g>
			<g>
				<g>
					<path d="M25.5,26.5c-0.2,0-0.4-0.2-0.4-0.4v-7c0-0.2,0.2-0.4,0.4-0.4c0.2,0,0.4-0.2,0.4-0.4v-4.2c0-0.8-0.6-1.8-1.4-1.8h-3.2
						c-0.2,0-0.4-0.2-0.4-0.4c0-0.2,0.2-0.4,0.4-0.4h3.2c1.2,0,2.1,1.3,2.1,2.5v4.2c0,0.5-0.3,0.8-0.7,1v6.7
						C25.8,26.4,25.7,26.5,25.5,26.5z"/>
				</g>
			</g>
		</g>
		<g>
			<g>
				<g>
					<g>
						<path d="M21.6,21.6h-1.1c-0.2,0-0.4-0.2-0.4-0.4c0-0.2,0.2-0.4,0.4-0.4h1.1v-1.4h-1.1c-0.2,0-0.4-0.2-0.4-0.4
							c0-0.2,0.2-0.4,0.4-0.4h1.1c0.4,0,0.7,0.3,0.7,0.7v1.4C22.3,21.3,22,21.6,21.6,21.6z"/>
					</g>
				</g>
			</g>
		</g>
	</g>
	<g>
		<g>
			<g>
				<g>
					<path d="M16.7,9.7c-1.2,0-2.1-0.9-2.1-2.1s0.9-2.1,2.1-2.1s2.1,0.9,2.1,2.1S17.9,9.7,16.7,9.7z M16.7,6.2
						c-0.8,0-1.4,0.6-1.4,1.4S15.9,9,16.7,9s1.4-0.6,1.4-1.4S17.5,6.2,16.7,6.2z"/>
				</g>
			</g>
		</g>
		<g>
			<g>
				<g>
					<path d="M23.4,26.5c-0.2,0-0.4-0.2-0.4-0.4v-4.9c0-0.2,0.2-0.4,0.4-0.4c0.2,0,0.4,0.2,0.4,0.4v4.9
						C23.7,26.4,23.5,26.5,23.4,26.5z"/>
				</g>
			</g>
		</g>
		<g>
			<g>
				<g>
					<path d="M10.7,26.5c-0.2,0-0.4-0.2-0.4-0.4v-4.9c0-0.2,0.2-0.4,0.4-0.4s0.4,0.2,0.4,0.4v4.9C11.1,26.4,10.9,26.5,10.7,26.5z"/>
				</g>
			</g>
		</g>
		<g>
			<g>
				<g>
					<path d="M14.9,26.5c-0.2,0-0.4-0.2-0.4-0.4V22c0-0.2,0.2-0.4,0.4-0.4c0.2,0,0.4,0.2,0.4,0.4v4.2C15.3,26.4,15.1,26.5,14.9,26.5
						z"/>
				</g>
			</g>
		</g>
		<g>
			<g>
				<g>
					<path d="M19.2,26.5c-0.2,0-0.4-0.2-0.4-0.4v-7.7c0-0.2,0.2-0.4,0.4-0.4c0.2,0,0.4-0.2,0.4-0.4v-4.9c0-0.8-0.6-1.8-1.4-1.8h-2.8
						c-0.8,0-1.4,1-1.5,1.8l-0.3,5.6c0,0.2-0.2,0.3-0.4,0.3c-0.2,0-0.3-0.2-0.3-0.4l0.3-5.6c0.1-1.1,1-2.4,2.2-2.4h2.8
						c1.2,0,2.1,1.3,2.1,2.5v4.9c0,0.5-0.3,0.8-0.7,1v7.4C19.5,26.4,19.3,26.5,19.2,26.5z"/>
				</g>
			</g>
		</g>
		<g>
			<g>
				<g>
					<path d="M17.1,26.2v-6.3V26.2z"/>
				</g>
			</g>
			<g>
				<g>
					<path d="M17.1,26.5c-0.2,0-0.4-0.2-0.4-0.4v-6.3c0-0.2,0.2-0.4,0.4-0.4c0.2,0,0.4,0.2,0.4,0.4v6.3
						C17.4,26.4,17.2,26.5,17.1,26.5z"/>
				</g>
			</g>
		</g>
		<g>
			<g>
				<g>
					<g>
						<path d="M14.6,20.9h-2.1c-0.4,0-0.7-0.3-0.7-0.7v-1.4c0-0.4,0.3-0.7,0.7-0.7h2.1c0.4,0,0.7,0.3,0.7,0.7v1.4
							C15.3,20.6,15,20.9,14.6,20.9z M14.6,20.2v0.4V20.2L14.6,20.2L14.6,20.2z M12.5,18.8v1.4h2.1l0-1.4H12.5z"/>
					</g>
				</g>
			</g>
		</g>
	</g>
</g>
</svg>
