<?xml version="1.0" encoding="utf-8"?>
<!-- Generator: Adobe Illustrator 19.2.1, SVG Export Plug-In . SVG Version: 6.00 Build 0)  -->
<svg version="1.1" id="Layer_1_1_" xmlns="http://www.w3.org/2000/svg" xmlns:xlink="http://www.w3.org/1999/xlink" x="0px" y="0px"
	 viewBox="0 0 64 64" style="enable-background:new 0 0 64 64;" xml:space="preserve">
<g>
	<path d="M39.8,21.1l-5.3,6.1v2h7.4v-1.6h-5.5l4.7-5.3c0.5-0.6,0.8-1.4,0.8-2.2v-0.7c0-1.8-1.5-3.3-3.3-3.3s-3.3,1.5-3.3,3.3v1.6
		h1.6v-1.6c0-0.9,0.7-1.6,1.6-1.6s1.6,0.7,1.6,1.6V20C40.2,20.4,40.1,20.8,39.8,21.1z"/>
	<path d="M50.5,16l-6.1,8.8v1.9h6.6v2.5h1.6v-2.5h1.6V25h-1.6v-9H50.5z M50.9,25h-4.7l4.7-6.8V25z"/>
	<path d="M40.8,40.8C40.8,40.8,40.8,40.8,40.8,40.8c0-0.1,0-0.2-0.1-0.2c-0.1-0.2-0.2-0.3-0.3-0.4c-0.3-0.5-0.6-0.9-1-1.3l-4.1-3.6
		c-0.9-0.8-2-1.2-3.2-1.2H32c-1.3,0-2.5,0.5-3.4,1.4l-1,1c-1.2,1.2-3.3,1.2-4.4,0l-1.8-1.8c-0.6-0.6-0.9-1.4-0.9-2.2
		c0-0.8,0.3-1.6,0.9-2.2l1-1c0.9-0.9,1.4-2.1,1.4-3.4v-0.2c0-1.2-0.4-2.3-1.2-3.2L19,18.4c-0.9-1-2.2-1.6-3.6-1.6
		c-1.2,0-2.3,0.4-3.2,1.2l-3.1,2.7c-1.7,1.5-2.6,3.6-2.6,5.8c0,1.3,0.3,2.6,1,3.8c4.3,7.7,10.6,14.2,18.1,18.8l1.8,1.1
		c1.2,0.7,2.5,1.1,3.9,1.1c2.1,0,4-0.9,5.5-2.4l0.1,0c0,0,0,0,0,0c0.1,0,0.1-0.1,0.2-0.1c0.1-0.1,0.2-0.2,0.3-0.2c0,0,0.1,0,0.1-0.1
		c0.3-0.3,0.6-0.6,1-0.9c0.2-0.2,0.3-0.4,0.5-0.5c0,0,0,0,0.1-0.1c0.4-0.6,1-1.2,1.5-1.7c0.2-0.3,0.4-0.7,0.6-1c0-0.1,0-0.1,0-0.2
		C41.7,43.1,41.4,41.7,40.8,40.8z M15.4,18.4c0.9,0,1.8,0.4,2.4,1.1l3.6,4.1c0.5,0.6,0.8,1.3,0.8,2.1v0.2c0,0.4-0.1,0.7-0.2,1.1
		l-8.1-8.1C14.3,18.6,14.9,18.4,15.4,18.4z M37.5,45.8c0,0.1-0.1,0.1-0.1,0.2c0,0,0,0-0.1,0c0,0,0,0-0.1,0c-0.1,0.1-0.1,0.2-0.2,0.3
		c0,0-0.1,0-0.1,0.1c0,0,0,0,0,0l0,0c0,0-0.1,0-0.1,0.1c0,0,0,0.1-0.1,0.1c0,0.1-0.1,0.1-0.1,0.1l0,0l-0.7,0.9c-1.1,1.3-2.7,2-4.4,2
		c-1.1,0-2.1-0.3-3.1-0.9l-1.8-1.1c-7.3-4.5-13.4-10.8-17.6-18.2c-0.5-0.9-0.8-1.9-0.8-3c0-1.7,0.8-3.4,2.1-4.6l2.3-2l8.4,8.4
		L20.3,29c-0.9,0.9-1.4,2.1-1.4,3.4c0,1.3,0.5,2.5,1.4,3.4l1.8,1.8c0.9,0.9,2.1,1.4,3.4,1.4c1.3,0,2.5-0.5,3.4-1.4l0.7-0.7l6.6,6.6
		l0,0c0,0,0,0,0.1,0c0.1,0.1,0.2,0.1,0.2,0.2c0.4,0.3,0.7,0.7,0.9,1c0.1,0.1,0.1,0.2,0.1,0.2C37.7,45.2,37.7,45.6,37.5,45.8z
		 M39.6,43.1C39.6,43.1,39.6,43.1,39.6,43.1C39.6,43.1,39.6,43.1,39.6,43.1C39.6,43.2,39.6,43.2,39.6,43.1
		C39.6,43.2,39.6,43.2,39.6,43.1c-0.1,0.1-0.1,0.1-0.1,0.1c0,0-0.1,0.1-0.1,0.1c-0.1,0.1-0.2,0.2-0.3,0.2c0,0,0,0,0,0
		c-0.4,0.1-0.9-0.1-1.1-0.4c-0.2-0.3-0.5-0.6-0.8-0.8c0,0,0,0-0.1,0c0,0,0-0.1,0-0.1c-0.2-0.2-0.3-0.3-0.5-0.5c0,0-0.1-0.1-0.1-0.1
		c0,0,0,0,0,0l-5.7-5.7c0.3-0.1,0.7-0.2,1.1-0.2h0.2v0c0.8,0,1.5,0.3,2.1,0.8l4.1,3.6c0.2,0.2,0.4,0.4,0.5,0.6h0
		c0.1,0.1,0.1,0.2,0.2,0.3c0,0,0,0,0,0c0.1,0.1,0.1,0.2,0.2,0.3c0.1,0.2,0.3,0.5,0.3,0.7c0,0.1,0,0.1,0,0.2c0.1,0.1,0.1,0.3,0.1,0.4
		c0,0,0,0,0,0C39.7,42.7,39.7,42.9,39.6,43.1L39.6,43.1z"/>
	<path d="M53.4,12.7H27.1c-2.3,0-4.1,1.8-4.1,4.1v2.5h1.6v-2.5c0-1.4,1.1-2.5,2.5-2.5h26.3c1.4,0,2.5,1.1,2.5,2.5v11.5
		c0,1.4-1.1,2.5-2.5,2.5H23.8v1.6c0,0,20-0.1,20.5-0.1l3.3,0.1h5.8c2.3,0,4.1-1.8,4.1-4.1V16.8C57.5,14.5,55.6,12.7,53.4,12.7z"/>
</g>
</svg>
