<?xml version="1.0" encoding="utf-8"?>
<!-- Generator: Adobe Illustrator 19.2.1, SVG Export Plug-In . SVG Version: 6.00 Build 0)  -->
<svg version="1.1" id="Layer_1" xmlns="http://www.w3.org/2000/svg" xmlns:xlink="http://www.w3.org/1999/xlink" x="0px" y="0px"
	 viewBox="0 0 30 30" style="enable-background:new 0 0 30 30;" xml:space="preserve">
<path d="M7.9,10.5L6.2,7.6l1.1-1.1L10,8.3v1.1l2.9,2.9c0,0.1,0,0.1,0,0.2l-1,1l-3-3H7.9z M19.7,17.2c-0.2,0-0.4,0-0.6,0l0,0
	c-0.5,0-1-0.1-1.5-0.1L16,19l3.7,4.2c0.9,1,2.4,1,3.2,0.1c1-1,0.9-2.4-0.1-3.2L19.7,17.2z M22.5,14.2c1.2-1.2,1.6-3.2,1.2-4.9
	C23.6,9,23.2,9,23.1,9.3L20.4,12l-2.2-2.2L20.9,7c0.2-0.2,0.1-0.5-0.1-0.6c-1.6-0.5-3.6-0.1-4.9,1.2c-1.4,1.4-1.7,3.6-1,5.4l-8,7
	c-1,0.9-1,2.4-0.1,3.2l0,0c1,1,2.4,0.9,3.2-0.1l7.1-8C18.9,16,21,15.7,22.5,14.2z"/>
</svg>
